<svg xmlns="http://www.w3.org/2000/svg" viewBox="0 0 16 16"><path fill="#FFF" d="M1 1h14v14H1V1z"/><path fill="#999" d="M1 1v14h14V1H1zm1 1h12v12H2V2z"/><path d="M3.43 7.973l4.19-1.757.372 1.178-3.056 1.19 3.056 1.19-.372 1.178-4.19-1.768zM9.645 8.933q-.01-.055-.01-.164 0-.436.229-.829.229-.404.6-.71.25-.207.47-.436.217-.24.217-.513 0-.327-.229-.49-.229-.175-.578-.175-.35 0-.677.109-.327.098-.71.283l-.37-1.025q.382-.24.895-.371t1.015-.131q.622 0 1.025.174.404.164.633.415.23.25.317.556.098.295.098.568 0 .316-.13.578-.121.262-.317.491-.186.23-.404.437-.218.196-.415.393-.185.196-.316.404-.12.207-.12.436zm1.605 1.68q0 .426-.284.666-.273.24-.622.24-.175 0-.338-.065-.164-.055-.295-.175-.131-.12-.207-.283-.077-.164-.077-.382 0-.208.077-.371.076-.175.207-.284.13-.12.295-.175.163-.065.338-.065.174 0 .338.065.164.055.284.175.13.109.207.284.077.163.077.37z" fill="#f49700"/></svg>
