<svg xmlns="http://www.w3.org/2000/svg" viewBox="0 0 64 64"><path fill="#217821" d="M0 0h64v64H0z"/><path d="M9.732 31.867l20.419-8.56 1.808 5.742-14.889 5.796 14.889 5.796-1.808 5.742L9.732 37.77zM40.017 36.546q-.053-.266-.053-.797 0-2.127 1.117-4.041 1.117-1.968 2.924-3.457 1.223-1.01 2.287-2.127 1.063-1.17 1.063-2.499 0-1.595-1.116-2.393-1.117-.85-2.818-.85-1.702 0-3.297.531-1.595.479-3.457 1.383l-1.807-4.999q1.86-1.17 4.36-1.807 2.499-.638 4.945-.638 3.03 0 4.998.85 1.968.798 3.084 2.02 1.117 1.224 1.542 2.713.479 1.435.479 2.765 0 1.542-.638 2.818-.585 1.276-1.542 2.393-.904 1.116-1.968 2.127-1.063.957-2.02 1.914-.904.957-1.542 1.967-.585 1.01-.585 2.127zm7.817 8.19q0 2.073-1.383 3.243-1.329 1.17-3.03 1.17-.851 0-1.649-.32-.797-.265-1.436-.85-.638-.585-1.01-1.383-.372-.797-.372-1.86 0-1.011.372-1.809.372-.85 1.01-1.382.639-.585 1.436-.851.798-.32 1.649-.32.85 0 1.648.32.797.266 1.382.85.638.532 1.01 1.383.373.798.373 1.808z" fill="#fff"/></svg>
